<?xml version="1.0" standalone="no"?>
<!DOCTYPE svg PUBLIC "-//W3C//DTD SVG 20010904//EN"
 "http://www.w3.org/TR/2001/REC-SVG-20010904/DTD/svg10.dtd">
<svg version="1.0" xmlns="http://www.w3.org/2000/svg"
 width="747.000000pt" height="653.000000pt" viewBox="0 0 747.000000 653.000000"
 preserveAspectRatio="xMidYMid meet">

<g transform="translate(0.000000,653.000000) scale(0.100000,-0.100000)"
fill="#000000" stroke="none">
<path d="M2926 4910 c106 -9 191 -48 264 -121 39 -38 47 -44 29 -19 -67 90
-195 151 -313 149 -60 -2 -60 -2 20 -9z"/>
<path d="M3251 4710 c14 -31 19 -36 19 -24 0 6 -7 19 -16 30 -14 18 -14 18 -3
-6z"/>
<path d="M1733 4601 c-25 -12 -51 -34 -66 -58 -23 -35 -25 -50 -30 -208 -4
-93 -3 -188 1 -210 7 -38 10 -40 45 -43 47 -4 129 22 153 49 11 12 26 42 34
67 18 56 48 67 86 31 22 -21 25 -21 48 -6 19 13 28 32 37 77 11 55 13 59 28
47 49 -43 128 -59 174 -36 48 25 87 72 87 105 0 44 -47 82 -168 134 -152 65
-346 88 -429 51z"/>
<path d="M2521 4584 c0 -11 3 -14 6 -6 3 7 2 16 -1 19 -3 4 -6 -2 -5 -13z"/>
<path d="M5135 4540 c-18 -5 -2 -6 41 -3 77 6 114 -6 167 -56 36 -33 54 -66
67 -127 6 -28 49 -116 101 -206 92 -161 119 -222 119 -265 0 -19 -4 -24 -17
-19 -45 18 -113 27 -155 21 -35 -5 -71 -22 -135 -66 -113 -77 -127 -75 -131
11 -2 36 -1 120 3 187 6 110 9 123 27 129 22 7 48 60 48 99 0 25 -39 75 -58
75 -5 0 -26 -11 -46 -25 l-36 -25 -43 37 c-40 36 -41 36 -12 4 46 -50 63 -56
89 -32 49 46 95 10 82 -64 -6 -29 -14 -40 -37 -48 -23 -9 -29 -17 -29 -42 0
-17 -12 -48 -26 -70 l-25 -40 25 30 26 30 0 -147 c0 -156 3 -178 28 -178 14 0
14 -2 0 -17 -30 -35 -48 -83 -48 -130 0 -60 -22 -153 -50 -217 -29 -65 -24
-148 13 -231 l27 -60 -25 30 c-32 39 -59 118 -59 176 0 29 10 69 26 105 15 33
33 97 42 144 17 99 30 240 22 240 -16 0 -47 -88 -60 -171 -29 -182 -79 -318
-152 -422 -19 -26 -34 -53 -34 -60 0 -14 197 -217 211 -217 5 0 20 21 33 48
23 42 25 44 26 20 0 -16 5 -28 10 -28 6 0 11 -15 11 -32 2 -32 2 -32 6 -5 4
24 8 28 27 23 29 -7 66 3 66 20 0 18 250 25 257 7 11 -28 131 -2 211 43 l42
25 0 -30 c0 -37 -23 -51 -131 -81 -90 -25 -106 -25 -113 -2 -2 9 -2 -26 0 -78
3 -52 -4 -248 -15 -434 -11 -187 -18 -343 -15 -348 15 -23 -10 -77 -62 -135
-30 -34 -74 -97 -98 -140 -28 -51 -49 -78 -60 -77 -9 1 -16 -2 -16 -7 0 -5 7
-9 14 -9 18 0 55 48 85 108 12 24 50 74 85 112 48 52 66 80 71 108 6 39 7 39
48 36 23 -2 65 -5 93 -7 l51 -4 -1 76 c-1 81 20 141 50 141 34 0 164 111 164
140 0 6 12 11 28 11 23 2 23 2 5 6 -19 4 -21 8 -15 36 4 18 7 75 6 127 -1 115
-28 230 -89 381 -27 66 -41 114 -38 130 11 60 -100 439 -189 644 -34 78 -37
93 -26 113 22 42 -4 110 -124 322 -35 64 -74 147 -86 185 -46 150 -152 212
-297 175z m115 -1338 c12 -96 8 -141 -5 -55 l-8 48 -18 -84 c-10 -46 -22 -87
-25 -90 -10 -9 5 122 20 171 9 30 10 62 5 99 -10 71 -11 184 -2 245 6 39 9 21
14 -96 4 -80 12 -187 19 -238z m395 201 c-11 -214 -37 -394 -57 -407 -9 -5
-21 -7 -25 -3 -4 5 -1 12 6 17 13 7 42 208 66 458 12 121 18 80 10 -65z m-378
-345 c-3 -7 -5 -2 -5 12 0 14 2 19 5 13 2 -7 2 -19 0 -25z m63 -3 c0 -8 -7
-15 -15 -15 -8 0 -15 7 -15 15 0 8 7 15 15 15 8 0 15 -7 15 -15z m80 0 c0 -8
-7 -15 -15 -15 -16 0 -20 12 -8 23 11 12 23 8 23 -8z m70 0 c0 -8 -7 -15 -15
-15 -16 0 -20 12 -8 23 11 12 23 8 23 -8z m70 0 c0 -8 -7 -15 -15 -15 -8 0
-15 7 -15 15 0 8 7 15 15 15 8 0 15 -7 15 -15z m304 -10 c7 -27 1 -45 -13 -45
-10 0 -21 51 -14 62 9 15 21 8 27 -17z m-577 -37 c-3 -7 -5 -2 -5 12 0 14 2
19 5 13 2 -7 2 -19 0 -25z m441 -745 c-27 -2 -69 -2 -95 0 -27 2 -5 3 47 3 52
0 74 -1 48 -3z m12 -43 c0 -21 -15 -27 -25 -10 -7 12 2 30 16 30 5 0 9 -9 9
-20z m-10 -65 c0 -8 -7 -15 -15 -15 -16 0 -20 12 -8 23 11 12 23 8 23 -8z m0
-59 c0 -8 -4 -17 -9 -21 -12 -7 -24 12 -16 25 9 15 25 12 25 -4z"/>
<path d="M2522 4465 c0 -16 2 -22 5 -12 2 9 2 23 0 30 -3 6 -5 -1 -5 -18z"/>
<path d="M2531 4420 c0 -8 4 -22 9 -30 12 -18 12 -2 0 25 -6 13 -9 15 -9 5z"/>
<path d="M4945 4399 c-9 -16 -17 -54 -17 -82 -1 -59 -8 -76 -44 -112 -29 -29
-28 -46 4 -60 17 -7 22 -18 22 -45 0 -53 19 -109 40 -120 11 -6 51 -12 91 -14
42 -3 77 -10 85 -18 8 -7 18 -38 24 -67 14 -77 24 -78 17 -3 -8 92 -29 112
-119 112 -38 0 -78 4 -88 10 -22 12 -40 60 -40 107 0 27 -5 35 -25 43 -14 5
-25 12 -25 15 0 3 17 21 38 40 34 32 37 39 35 85 -1 27 4 70 11 95 16 52 13
57 -9 14z"/>
<path d="M2550 4364 c0 -5 11 -27 25 -48 l23 -39 -29 -84 c-17 -47 -28 -87
-25 -90 3 -3 61 5 128 19 72 14 133 21 148 17 33 -9 149 -9 180 1 14 4 -11 5
-55 2 -44 -2 -97 0 -119 6 -32 9 -59 7 -152 -13 -63 -14 -116 -25 -118 -25 -3
0 8 38 25 83 l31 84 -31 48 c-17 27 -31 45 -31 39z"/>
<path d="M4978 4313 c12 -2 30 -2 40 0 9 3 -1 5 -23 4 -22 0 -30 -2 -17 -4z"/>
<path d="M2151 4217 c-1 -46 25 -117 49 -132 21 -13 9 -35 -27 -52 -36 -17
-38 -21 -43 -76 -8 -85 -29 -100 -134 -93 -76 5 -116 -3 -116 -25 0 -6 7 -3
17 6 10 11 25 15 42 11 148 -33 211 -3 211 99 0 42 2 46 35 59 56 24 57 52 4
117 -11 15 -24 50 -29 80 l-8 54 -1 -48z"/>
<path d="M4970 4245 c0 -8 7 -15 15 -15 8 0 15 7 15 15 0 8 -7 15 -15 15 -8 0
-15 -7 -15 -15z"/>
<path d="M2083 4243 c9 -2 25 -2 35 0 9 3 1 5 -18 5 -19 0 -27 -2 -17 -5z"/>
<path d="M2086 4183 c-11 -11 -6 -23 9 -23 8 0 15 4 15 9 0 13 -16 22 -24 14z"/>
<path d="M3070 4170 c-9 -6 -10 -10 -3 -10 6 0 15 5 18 10 8 12 4 12 -15 0z"/>
<path d="M4963 4100 c-13 -5 -23 -12 -23 -15 0 -9 16 -5 36 10 22 16 19 18
-13 5z"/>
<path d="M1660 4036 c0 -7 -11 -31 -25 -52 l-26 -39 31 33 c25 27 41 72 25 72
-3 0 -5 -6 -5 -14z"/>
<path d="M2037 4009 c-18 -25 -11 -56 15 -70 25 -13 39 -1 15 12 -24 14 -21
45 5 63 l22 16 -21 0 c-12 0 -28 -9 -36 -21z"/>
<path d="M1841 3988 c-1 -9 9 -27 22 -40 12 -13 17 -17 10 -8 -7 8 -16 27 -22
40 -6 17 -10 19 -10 8z"/>
<path d="M1580 3960 c-1 -38 212 -190 266 -190 20 0 17 -14 -6 -35 -12 -11
-20 -31 -20 -52 0 -18 -2 -33 -5 -33 -5 0 -19 12 -115 98 -94 84 -113 94 -47
26 31 -33 57 -63 57 -66 0 -4 -16 4 -36 17 -29 20 -49 25 -98 25 -34 -1 -72
-7 -85 -14 -22 -12 -17 -13 47 -8 56 4 83 0 120 -14 47 -18 54 -20 72 -23 5 0
28 -17 50 -37 33 -30 43 -34 55 -24 10 8 13 21 9 37 -5 17 0 34 15 54 12 17
21 37 19 46 -2 9 -30 25 -67 38 -77 28 -196 107 -216 144 -8 14 -14 19 -15 11z"/>
<path d="M1495 3868 c-53 -62 -151 -211 -192 -292 -36 -71 -103 -264 -103
-294 0 -9 14 24 31 73 16 50 52 135 79 190 48 99 172 299 213 343 11 12 18 22
15 22 -4 0 -23 -19 -43 -42z"/>
<path d="M2001 3795 c67 -78 94 -140 108 -252 6 -43 24 -114 41 -158 l31 -80
-47 -43 c-47 -43 -102 -77 -110 -69 -2 2 1 48 6 103 7 65 8 122 2 164 -7 48
-10 56 -12 30 -1 -19 -3 -51 -4 -70 -1 -19 -3 -68 -4 -107 -2 -69 -3 -73 -32
-88 -16 -8 -30 -15 -32 -15 -2 0 -3 51 -3 114 l0 115 30 9 c24 8 26 10 8 11
-51 2 -53 -2 -53 -140 0 -71 3 -129 6 -129 4 0 21 9 38 19 l31 20 -3 -172 c-2
-95 1 -190 5 -212 9 -38 7 -42 -31 -80 -28 -27 -45 -55 -53 -86 -10 -36 -31
-67 -91 -132 -43 -47 -89 -105 -100 -129 l-22 -43 0 51 c0 28 5 121 11 207 6
87 9 162 7 169 -7 21 -29 -263 -38 -492 -5 -118 -16 -276 -25 -350 -10 -74
-17 -168 -16 -207 1 -71 -12 -148 -32 -187 -9 -19 -10 -19 -23 -1 -8 10 -14
42 -14 69 0 53 -23 112 -51 129 -26 16 -59 1 -154 -69 -135 -100 -205 -128
-205 -81 0 26 29 57 78 81 17 9 32 19 32 21 0 3 -19 -4 -42 -16 -23 -12 -58
-28 -77 -35 -26 -10 -29 -13 -9 -9 26 5 27 4 13 -21 -47 -91 76 -63 229 53
105 79 137 82 155 16 6 -21 11 -59 11 -84 0 -59 29 -100 57 -83 28 17 51 100
52 184 0 41 8 146 18 233 l17 157 490 0 491 0 60 29 c33 15 70 39 82 52 83 91
84 282 1 345 -24 18 -24 20 -10 53 35 86 -3 193 -93 261 -25 19 -45 36 -45 39
0 3 52 32 115 65 63 32 123 65 132 73 10 8 14 12 8 10 -49 -23 -354 -159 -443
-198 -63 -27 -150 -58 -193 -69 -79 -20 -80 -20 -123 -2 -42 19 -93 73 -135
142 -18 30 -21 51 -21 141 l0 106 58 36 c31 19 72 51 91 71 l34 35 -37 98
c-20 54 -40 129 -45 167 -12 85 -57 179 -108 226 -32 30 -34 30 -12 5z m57
-979 c-24 -12 -25 -10 -32 54 l-7 55 29 -50 c26 -47 27 -51 10 -59z m532 -200
c107 -17 190 -40 110 -30 -123 15 -278 24 -500 31 -146 4 -231 10 -210 15 59
12 496 0 600 -16z"/>
<path d="M1950 3801 c0 -5 7 -15 17 -22 15 -13 15 -12 4 9 -12 23 -21 28 -21
13z"/>
<path d="M5723 3763 c99 -110 145 -205 278 -561 44 -119 112 -302 151 -407 69
-187 147 -357 169 -370 20 -13 -13 -25 -67 -25 -28 0 -74 7 -103 16 -29 8 -62
13 -74 11 -18 -4 -17 -5 5 -6 15 0 47 -9 70 -18 52 -21 158 -24 181 -4 15 12
14 17 -12 55 -39 57 -76 145 -198 481 -135 371 -171 463 -243 611 -48 100 -70
132 -130 195 -40 40 -52 51 -27 22z"/>
<path d="M1929 3742 c5 -34 6 -35 9 -8 2 16 0 32 -5 37 -5 5 -7 -7 -4 -29z"/>
<path d="M1886 3415 c4 -285 17 -522 34 -620 7 -41 8 -35 4 35 -2 47 -9 222
-15 390 -16 442 -29 552 -23 195z"/>
<path d="M1363 3564 c-14 -47 -17 -89 -15 -201 2 -121 -1 -150 -17 -192 -11
-26 -22 -77 -25 -112 l-5 -64 9 54 c6 29 20 74 33 100 20 42 22 58 20 201 -2
109 1 172 11 210 19 74 12 77 -11 4z"/>
<path d="M3279 3483 l-103 -106 -89 6 c-53 3 -98 2 -111 -5 -13 -5 -53 -43
-90 -84 -59 -65 -81 -81 -169 -124 -96 -46 -234 -87 -355 -104 -41 -6 -46 -4
-81 31 -20 21 -45 49 -54 63 -11 14 -9 8 4 -15 12 -22 35 -53 52 -69 29 -28
32 -28 102 -22 105 10 247 50 352 101 79 39 101 55 164 125 54 60 81 81 105
86 47 9 197 -8 201 -23 8 -24 -35 -53 -79 -54 -41 -1 -47 -5 -123 -89 -43 -48
-81 -93 -83 -99 -2 -5 63 -87 144 -180 l147 -170 191 182 c312 298 411 395
406 399 -3 3 -100 61 -217 130 l-212 126 -102 -105z m371 -172 c0 -7 -337
-314 -349 -319 -3 -1 -53 38 -109 88 l-103 90 151 159 152 160 129 -86 c71
-47 129 -89 129 -92z m-519 -296 c-1 -15 -24 -12 -29 3 -3 9 2 13 12 10 10 -1
17 -7 17 -13z"/>
<path d="M3369 3403 l-24 -28 27 23 c25 23 27 23 52 7 14 -10 26 -20 26 -24 0
-4 -15 -22 -34 -40 -22 -22 -40 -31 -51 -27 -9 3 -13 2 -10 -4 11 -18 29 -10
73 31 23 22 42 41 42 44 0 4 -65 45 -72 45 -2 0 -15 -12 -29 -27z"/>
<path d="M3520 3341 c24 -20 40 -26 40 -16 0 2 -15 12 -32 20 l-33 16 25 -20z"/>
<path d="M3489 3291 c13 -12 28 -21 35 -21 12 0 -5 14 -39 31 -16 8 -15 6 4
-10z"/>
<path d="M3314 3257 c29 -25 106 -72 106 -64 0 5 -54 41 -105 71 l-30 18 29
-25z"/>
<path d="M3442 3245 c20 -14 40 -25 44 -25 5 0 -7 11 -26 25 -19 14 -39 25
-44 25 -6 0 6 -11 26 -25z"/>
<path d="M3240 3237 c0 -5 54 -41 105 -71 l30 -18 -29 25 c-29 25 -106 72
-106 64z"/>
<path d="M3234 3168 c17 -13 48 -33 70 -46 l41 -23 -29 23 c-17 13 -48 33 -70
46 l-41 23 29 -23z"/>
<path d="M3170 3137 c0 -5 54 -41 105 -71 l30 -18 -29 25 c-29 25 -106 72
-106 64z"/>
<path d="M1790 3398 c-10 -97 -9 -122 4 -171 19 -73 39 -214 31 -226 -3 -5
-36 -20 -73 -33 -56 -19 -87 -23 -194 -23 -84 0 -118 -3 -100 -8 15 -5 77 -9
137 -10 90 0 120 4 166 21 97 38 95 35 81 144 -6 52 -19 114 -28 138 -13 36
-15 68 -10 163 4 64 5 117 2 117 -2 0 -9 -51 -16 -112z"/>
<path d="M1828 3423 c8 -3 12 -30 13 -81 0 -42 4 -97 8 -122 7 -38 9 -30 10
51 1 118 -6 159 -28 158 -10 0 -11 -2 -3 -6z"/>
<path d="M1191 3244 c0 -11 3 -14 6 -6 3 7 2 16 -1 19 -3 4 -6 -2 -5 -13z"/>
<path d="M1182 3200 c0 -14 2 -19 5 -12 2 6 2 18 0 25 -3 6 -5 1 -5 -13z"/>
<path d="M1172 3145 c0 -16 2 -22 5 -12 2 9 2 23 0 30 -3 6 -5 -1 -5 -18z"/>
<path d="M1157 2863 c-4 -120 -7 -322 -7 -449 l0 -230 33 -31 c45 -43 69 -53
119 -52 l43 2 -45 6 c-53 8 -76 20 -108 54 l-24 25 2 446 c0 245 -1 446 -3
446 -2 0 -7 -98 -10 -217z"/>
<path d="M4785 3012 c-39 -38 -127 -147 -199 -247 -83 -115 -162 -213 -220
-270 -50 -49 -72 -75 -50 -58 82 64 211 212 318 364 60 85 136 182 170 217 33
34 58 62 56 62 -3 0 -36 -31 -75 -68z"/>
<path d="M1310 2980 c8 -5 20 -10 25 -10 6 0 3 5 -5 10 -8 5 -19 10 -25 10 -5
0 -3 -5 5 -10z"/>
<path d="M1358 2963 c7 -3 16 -2 19 1 4 3 -2 6 -13 5 -11 0 -14 -3 -6 -6z"/>
<path d="M1398 2953 c7 -3 16 -2 19 1 4 3 -2 6 -13 5 -11 0 -14 -3 -6 -6z"/>
<path d="M5065 2864 c-23 -34 -47 -54 -100 -81 -38 -19 -109 -57 -157 -84 -48
-27 -124 -68 -169 -91 -93 -49 -176 -124 -209 -188 -33 -65 -42 -172 -19 -227
23 -53 81 -96 168 -124 53 -17 99 -22 236 -26 94 -2 205 0 247 4 43 5 75 7 72
4 -3 -3 -42 -26 -87 -51 -67 -37 -83 -50 -85 -72 -5 -44 27 -44 117 2 45 22
81 38 81 36 0 -3 -34 -30 -75 -61 -76 -56 -80 -61 -69 -89 13 -34 82 -8 169
64 71 60 69 31 -4 -45 -34 -35 -61 -67 -61 -72 1 -16 129 132 130 150 0 27
-24 20 -76 -23 -52 -42 -102 -70 -128 -70 -31 0 -16 20 57 73 91 68 102 80 83
96 -11 10 -31 4 -95 -28 -79 -40 -111 -49 -111 -33 0 5 68 47 151 93 170 94
188 114 196 207 3 31 -5 176 -16 321 -12 145 -21 285 -21 312 0 40 -3 49 -17
49 -15 -1 -130 -42 -207 -75 -16 -7 -15 -2 9 28 15 21 26 39 24 42 -3 2 -18
-16 -34 -41z m-50 -555 c69 -6 160 -17 203 -24 l77 -14 -120 5 c-66 3 -172 12
-235 20 -190 25 -148 32 75 13z"/>
<path d="M1372 2870 c0 -19 2 -27 5 -17 2 9 2 25 0 35 -3 9 -5 1 -5 -18z"/>
<path d="M1383 2690 c0 -69 -6 -145 -12 -170 -19 -79 -14 -229 11 -306 25 -80
30 -236 10 -296 -12 -33 -18 -38 -63 -47 -27 -6 -89 -14 -137 -17 -126 -8
-159 -21 -153 -57 1 -5 -9 -17 -21 -27 -18 -15 -21 -22 -12 -36 6 -10 17 -20
25 -22 8 -2 5 2 -5 10 -26 21 -14 47 26 55 31 6 31 6 8 15 -21 8 -22 10 -8 24
11 12 49 19 134 25 167 12 192 17 209 43 34 51 37 249 6 329 -29 73 -33 159
-16 307 13 109 15 164 8 220 l-9 75 -1 -125z"/>
<path d="M6005 2490 c-8 -13 4 -32 16 -25 12 8 12 35 0 35 -6 0 -13 -4 -16
-10z"/>
<path d="M6086 2493 c-11 -11 -6 -23 9 -23 8 0 15 4 15 9 0 13 -16 22 -24 14z"/>
<path d="M6165 2470 c-4 -6 -3 -16 3 -22 6 -6 12 -6 17 2 4 6 3 16 -3 22 -6 6
-12 6 -17 -2z"/>
<path d="M6245 2450 c-8 -13 4 -32 16 -25 12 8 12 35 0 35 -6 0 -13 -4 -16
-10z"/>
<path d="M4240 2389 c-22 -18 -22 -19 -3 -10 12 6 25 16 28 21 9 15 3 12 -25
-11z"/>
<path d="M6000 2369 c25 -5 56 -12 70 -15 13 -3 47 -29 74 -57 46 -49 33 -24
-25 45 -24 29 -32 32 -95 35 -67 2 -67 2 -24 -8z"/>
<path d="M4135 2345 c-25 -12 -26 -14 -5 -9 28 7 60 23 45 23 -5 0 -23 -6 -40
-14z"/>
<path d="M4048 2315 c-76 -28 -108 -47 -108 -66 0 -10 5 -21 11 -24 7 -5 3
-15 -11 -30 l-21 -23 20 -15 c14 -9 19 -20 15 -31 -8 -21 32 -66 58 -66 27 0
136 57 184 96 40 33 74 44 74 24 0 -5 -7 -35 -15 -66 -10 -40 -12 -62 -4 -75
12 -24 41 -24 61 -1 21 23 78 134 78 150 0 8 -16 -17 -35 -55 -43 -82 -64
-106 -84 -94 -12 8 -12 19 3 75 10 36 16 73 12 81 -11 30 -62 16 -120 -32 -35
-29 -144 -85 -157 -81 -5 2 12 20 40 41 71 55 84 75 23 38 -28 -18 -54 -37
-57 -42 -9 -14 -45 -11 -39 4 2 6 36 34 74 61 39 27 70 51 70 53 0 3 -29 -11
-65 -31 -65 -35 -105 -45 -105 -26 0 5 36 30 81 56 91 53 101 72 12 25 -36
-20 -66 -29 -77 -25 -16 6 -16 8 0 25 9 11 20 19 24 19 4 0 32 11 61 24 59 27
57 33 -3 11z"/>
<path d="M5903 2299 c-41 -12 -43 -23 -3 -14 52 11 122 7 137 -7 7 -8 22 -30
31 -49 22 -43 81 -76 152 -83 53 -5 54 -5 11 4 -81 17 -127 47 -150 95 -11 24
-29 49 -40 55 -24 12 -94 12 -138 -1z"/>
<path d="M5838 2273 c7 -3 16 -2 19 1 4 3 -2 6 -13 5 -11 0 -14 -3 -6 -6z"/>
<path d="M6200 2244 c0 -9 73 -33 144 -47 86 -18 131 -41 122 -63 -18 -43 -18
-49 -2 -30 40 50 -2 100 -94 111 -25 3 -73 12 -107 19 -35 7 -63 12 -63 10z"/>
<path d="M6298 2133 c7 -3 16 -2 19 1 4 3 -2 6 -13 5 -11 0 -14 -3 -6 -6z"/>
<path d="M6345 2120 c27 -12 43 -12 25 0 -8 5 -22 9 -30 9 -10 0 -8 -3 5 -9z"/>
<path d="M6408 2091 c30 -29 28 -47 -9 -83 l-30 -31 -122 6 c-79 4 -150 13
-202 28 -95 26 -210 48 -245 48 -14 0 13 -9 60 -18 47 -10 103 -26 125 -35 94
-40 339 -62 398 -35 56 26 71 106 24 130 l-22 11 23 -21z"/>
<path d="M1936 2009 c-22 -5 -41 -11 -43 -12 -1 -2 49 -3 113 -3 64 0 108 3
100 8 -24 13 -128 18 -170 7z"/>
<path d="M1870 1833 c0 -174 4 -185 80 -203 58 -14 114 -7 158 20 l32 20 0
156 c0 145 -1 156 -17 148 -23 -11 -201 -12 -230 -1 l-23 8 0 -148z m130 61
c0 -3 -12 -22 -26 -44 -31 -46 -27 -79 11 -104 43 -28 26 -63 -23 -45 -62 23
-69 176 -10 198 21 8 48 5 48 -5z"/>
<path d="M5284 1838 l-29 -33 32 29 c37 33 52 29 34 -10 -6 -15 -10 -28 -8
-31 8 -7 29 56 22 66 -10 17 -19 13 -51 -21z"/>
<path d="M1098 1793 c6 -2 18 -2 25 0 6 3 1 5 -13 5 -14 0 -19 -2 -12 -5z"/>
<path d="M5219 1764 c-13 -14 -33 -30 -44 -34 -14 -6 -15 -9 -4 -9 8 -1 30 15
49 34 19 19 32 35 29 35 -3 0 -16 -12 -30 -26z"/>
<path d="M5301 1764 c0 -11 3 -14 6 -6 3 7 2 16 -1 19 -3 4 -6 -2 -5 -13z"/>
<path d="M5120 1730 c0 -5 5 -10 11 -10 5 0 7 5 4 10 -3 6 -8 10 -11 10 -2 0
-4 -4 -4 -10z"/>
<path d="M1084 1714 c-18 -14 -18 -14 6 -3 31 14 36 19 24 19 -6 0 -19 -7 -30
-16z"/>
<path d="M1050 1674 c0 -19 28 -36 52 -31 21 4 20 4 -4 6 -15 0 -32 9 -37 19
-6 9 -11 12 -11 6z"/>
</g>
</svg>
